# xmcd
#
# Track frame offsets:
#	150
#	14350
#	27868
#	41399
#	57058
#	73321
#	87899
#	105174
#	116768
#	136873
#
# Disc length: 2015 seconds
#
# Revision: 1
# Processed by: cddbd v1.5.2PL0 Copyright (c) Steve Scherf et al.
# Submitted via: audiograbber 1.83.01
#
DISCID=7807dd0a
DTITLE=Στελιος Μαξιμος - Οταν Φευγω Δεν Ξαναγυρναω
DYEAR=2007
DGENRE=ΛΑΙΚΑ
TTITLE0=Στελιος Μαξιμος - Ποια στιγμη
TTITLE1=Στελιος Μαξιμος - Οταν φευγω δεν ξαναγυρναω
TTITLE2=Στελιος Μαξιμος - Σε ενα τζαμι θολο
TTITLE3=Στελιος Μαξιμος - Τι μου 'χεις κανει
TTITLE4=Στελιος Μαξιμος - Παλι σαν τρελος
TTITLE5=Στελιος Μαξιμος - Αντε πες το
TTITLE6=Στελιος Μαξιμος - Πως
TTITLE7=Στελιος Μαξιμος - Αμα φυγεις
TTITLE8=Στελιος Μαξιμος - Τι μου 'χεις κανει )Remix by Elias Pantazopoulos)
TTITLE9=Στελιος Μαξιμος - Πως (Unplugged)
EXTD=
EXTT0=
EXTT1=
EXTT2=
EXTT3=
EXTT4=
EXTT5=
EXTT6=
EXTT7=
EXTT8=
EXTT9=
PLAYORDER=
